# xmcd
#
# Track frame offsets: 
#        150
#        21185
#        38191
#        49231
#        70365
#        89480
#        107321
#        127712
#        147081
#        163357
#
# Disc length: 2397 seconds
#
# Revision: 0
# Processed by: cddbd v1.5.2PL0 Copyright (c) Steve Scherf et al.
# Submitted via: ExactAudioCopy v1.0b1
#
DISCID=84095b0a
DTITLE=Big Mama Thornton - Stronger Than Dirt
DYEAR=1969
DGENRE=Blues
TTITLE0=Born Under A Bad Sign
TTITLE1=Hound Dog
TTITLE2=Ball And Chain
TTITLE3=Summertime
TTITLE4=Rollin' Stone
TTITLE5=Let's Go Get Stoned
TTITLE6=Funky Broadway
TTITLE7=That Lucky Old Sun
TTITLE8=Ain't Nothin' You Can Do
TTITLE9=I Shall Be Released
EXTD=
EXTT0=
EXTT1=
EXTT2=
EXTT3=
EXTT4=
EXTT5=
EXTT6=
EXTT7=
EXTT8=
EXTT9=
PLAYORDER=
